{"title":"French Indian pornstar Sunaari Sumaira (Lilly Berty) and Eve Ang","uid":10780252,"size":264220374,"categoryP":"porn","categoryS":"other","magnet":"?xt=urn:btih:783f643044a083ac5e055411a6674d4d2b6ed271&amp;dn=French+Indian+pornstar+Sunaari+Sumaira+%28Lilly+Berty%29+and+Eve+Ang&amp;tr=udp%3A%2F%2Ftracker.openbittorrent.com%3A80&amp;tr=udp%3A%2F%2Fopen.demonii.com%3A1337&amp;tr=udp%3A%2F%2Ftracker.coppersurfer.tk%3A6969&amp;tr=udp%3A%2F%2Fexodus.desync.com%3A6969","seeders":3,"leechers":2,"uploader":"vpsr","files":1,"time":1408154210,"description":"French Indian pornstar Sunaari Sumaira (Lilly Berty) and Eve Angel anal[VPSR].avi\n\n &lt;a href=&quot;\nhttp://s25.postimg.org/64i8gqg0v/image.jpg&quot; rel=&quot;nofollow&quot; target=&quot;_NEW&quot;&gt;\nhttp://s25.postimg.org/64i8gqg0v/image.jpg&lt;/a&gt;\n\n &lt;a href=&quot;\nhttp://s25.postimg.org/9cmpts2an/French_Indian_pornstar_Sunaari_Sumaira_Lilly_Be.jpg&quot; rel=&quot;nofollow&quot; target=&quot;_NEW&quot;&gt;\nhttp://s25.postimg.org/9cmpts2an/French_Indian_pornstar_Sunaari_Sumaira_Lilly_Be.jpg&lt;/a&gt;\n\n\nFILE INFO\n\n\nGeneral\nComplete name                            : French Indian pornstar Sunaari Sumaira (Lilly Berty) and Eve Angel anal.avi\nFormat                                   : AVI\nFormat/Info                              : Audio Video Interleave\nFile size                                : 252 MiB\nDuration                                 : 28mn 26s\nOverall bit rate                         : 1 239 Kbps\nWriting application                      : Lavf52.94.0\nWriting library                          : VirtualDub build 30091/release\n\nVideo\nID                                       : 0\nFormat                                   : xvid\nCodec ID                                 : xvid\nDuration                                 : 28mn 26s\nBit rate                                 : 1 101 Kbps\nWidth                                    : 640 pixels\nHeight                                   : 480 pixels\nDisplay aspect ratio                     : 4:3\nFrame rate                               : 25.000 fps\nBits/(Pixel*Frame)                       : 0.143\nStream size                              : 224 MiB (89%)\n\nAudio\nID                                       : 1\nFormat                                   : MPEG Audio\nFormat version                           : Version 1\nFormat profile                           : Layer 3\nCodec ID                                 : 55\nCodec ID/Hint                            : MP3\nDuration                                 : 28mn 26s\nBit rate mode                            : Constant\nBit rate                                 : 128 Kbps\nChannel(s)                               : 1 channel\nSampling rate                            : 48.0 KHz\nCompression mode                         : Lossy\nStream size                              : 26.0 MiB (10%)\nAlignment                                : Split accross interleaves\nInterleave, duration                     : 40 ms (1.00 video frame)\nInterleave, preload duration             : 500 ms\n\n","torrent":{"xt":"urn:btih:783f643044a083ac5e055411a6674d4d2b6ed271","amp;dn":"French+Indian+pornstar+Sunaari+Sumaira+%28Lilly+Berty%29+and+Eve+Ang","amp;tr":["udp%3A%2F%2Ftracker.openbittorrent.com%3A80","udp%3A%2F%2Fopen.demonii.com%3A1337","udp%3A%2F%2Ftracker.coppersurfer.tk%3A6969","udp%3A%2F%2Fexodus.desync.com%3A6969"],"infoHash":"783f643044a083ac5e055411a6674d4d2b6ed271","infoHashBuffer":{"type":"Buffer","data":[120,63,100,48,68,160,131,172,94,5,84,17,166,103,77,77,43,110,210,113]},"announce":[],"urlList":[]}}